# xmcd
#
# Track frame offsets: 
#        182
#        10870
#        28485
#        39970
#        55110
#        64825
#        78270
#        94107
#        107945
#        120477
#
# Disc length: 1795 seconds
#
# Revision: 3
# Processed by: cddbd v1.5.2PL0 Copyright (c) Steve Scherf et al.
# Submitted via: ExactAudioCopy v1.1
#
DISCID=7a07010a
DTITLE=Mel McDaniel - Mel McDaniel Greatest Hits (CAPITOL)
DYEAR=1987
DGENRE=Country
TTITLE0=Louisiana Saturday Night
TTITLE1=Anger and Tears
TTITLE2=Stand Up
TTITLE3=Hello Daddy, Good Morning Darling
TTITLE4=Let It Roll (Let It Rock)
TTITLE5=Baby's Got Her Blue Jeans On
TTITLE6=Old Man River (I've Come To Talk Again)
TTITLE7=Love Is Everywhere
TTITLE8=Big Ole Brew
TTITLE9=Do You Want To Say Goodbye
EXTD=
EXTT0=
EXTT1=
EXTT2=
EXTT3=
EXTT4=
EXTT5=
EXTT6=
EXTT7=
EXTT8=
EXTT9=
PLAYORDER=
